HIERARCHY
ROOT joint_Root
{
  OFFSET 0 0 0
  CHANNELS 6 Xposition Yposition Zposition Zrotation Xrotation Yrotation
  JOINT Hips
  {
    OFFSET 0.847027 93.984 -452.225
    CHANNELS 6 Xposition Yposition Zposition Zrotation Xrotation Yrotation
    JOINT Spine
    {
      OFFSET 15.7357 0 0
      CHANNELS 6 Xposition Yposition Zposition Zrotation Xrotation Yrotation
      JOINT Chest
      {
        OFFSET 8.98455 -0.406207 0
        CHANNELS 6 Xposition Yposition Zposition Zrotation Xrotation Yrotation
        JOINT Neck
        {
          OFFSET 16.3773 0 0
          CHANNELS 6 Xposition Yposition Zposition Zrotation Xrotation Yrotation
          JOINT Head
          {
            OFFSET 6.45672 0 0
            CHANNELS 6 Xposition Yposition Zposition Zrotation Xrotation Yrotation
            End Site
            {
              OFFSET 0 0 0
            }
          }
        }
        JOINT Shoulder_L
        {
          OFFSET 12.9942 -0.242716 4.98039
          CHANNELS 6 Xposition Yposition Zposition Zrotation Xrotation Yrotation
          JOINT UpperArm_L
          {
            OFFSET 5.34809 0 0
            CHANNELS 6 Xposition Yposition Zposition Zrotation Xrotation Yrotation
            JOINT LowerArm_L
            {
              OFFSET 24.3286 1.87007e-05 0
              CHANNELS 6 Xposition Yposition Zposition Zrotation Xrotation Yrotation
              JOINT Hand_L
              {
                OFFSET 22.2916 0 0
                CHANNELS 6 Xposition Yposition Zposition Zrotation Xrotation Yrotation
                End Site
                {
                  OFFSET 0 0 0
                }
              }
            }
          }
        }
        JOINT Shoulder_R
        {
          OFFSET 12.9945 -0.242716 -4.98039
          CHANNELS 6 Xposition Yposition Zposition Zrotation Xrotation Yrotation
          JOINT UpperArm_R
          {
            OFFSET -5.34813 0 0
            CHANNELS 6 Xposition Yposition Zposition Zrotation Xrotation Yrotation
            JOINT LowerArm_R
            {
              OFFSET -24.3289 0.000322201 0
              CHANNELS 6 Xposition Yposition Zposition Zrotation Xrotation Yrotation
              JOINT Hand_R
              {
                OFFSET -22.2915 -0.000108084 0
                CHANNELS 6 Xposition Yposition Zposition Zrotation Xrotation Yrotation
                End Site
                {
                  OFFSET 0 0 0
                }
              }
            }
          }
        }
      }
    }
    JOINT UpperLeg_L
    {
      OFFSET -2.19248 -6.46944 0
      CHANNELS 6 Xposition Yposition Zposition Zrotation Xrotation Yrotation
      JOINT LowerLeg_L
      {
        OFFSET 39.0811 0 -1.23785e-05
        CHANNELS 6 Xposition Yposition Zposition Zrotation Xrotation Yrotation
        JOINT Foot_L
        {
          OFFSET 40.9854 0 -1.26872e-05
          CHANNELS 6 Xposition Yposition Zposition Zrotation Xrotation Yrotation
          JOINT Toes_L
          {
            OFFSET 11.7543 0 0
            CHANNELS 6 Xposition Yposition Zposition Zrotation Xrotation Yrotation
            End Site
            {
              OFFSET 0 0 0
            }
          }
        }
      }
    }
    JOINT UpperLeg_R
    {
      OFFSET -2.19251 6.46944 0
      CHANNELS 6 Xposition Yposition Zposition Zrotation Xrotation Yrotation
      JOINT LowerLeg_R
      {
        OFFSET -39.0811 -0.00228153 -0.0401928
        CHANNELS 6 Xposition Yposition Zposition Zrotation Xrotation Yrotation
        JOINT Foot_R
        {
          OFFSET -40.9854 0 0
          CHANNELS 6 Xposition Yposition Zposition Zrotation Xrotation Yrotation
          JOINT Toes_R
          {
            OFFSET -11.7543 0 0
            CHANNELS 6 Xposition Yposition Zposition Zrotation Xrotation Yrotation
            End Site
            {
              OFFSET 0 0 0
            }
          }
        }
      }
    }
  }
}
MOTION
Frames:	5
Frame Time:	0.0333333
0 0 0 0 0 -0 -6.98705 92.2087 19.0185 87.2476 43.374 6.46718 15.7357 5.1072e-06 -5.51765e-07 93.5321 86.0509 -91.1164 8.98455 -0.406207 -4.3199e-07 0.114873 0.325273 4.82792 16.3773 -1.3905e-06 -6.99897e-07 3.56351 -17.3247 3.37339 6.45672 -1.25837e-06 -1.02172e-07 13.3911 -27.1571 0.410271 12.9942 -0.242716 4.98039 -92.135 10.3368 -93.2633 5.34809 -7.22636e-06 -6.2814e-07 -62.4209 21.1443 4.18357 24.3286 1.87007e-05 4.90208e-06 -3.27839 -6.32271 -27.4812 22.2916 -9.88446e-07 4.63217e-06 15.6107 5.62141 -12.7173 12.9945 -0.242716 -4.98039 88.3845 11.7733 -97.1301 -5.34813 -1.25947e-06 -3.79883e-06 -48.5827 -47.3531 -30.4699 -24.3289 0.000322201 -8.65921e-06 -50.6611 -48.2419 -58.5553 -22.2915 -0.000108084 -4.47941e-06 3.91632 5.3702 -1.99269 -2.19248 -6.46944 -1.22534e-07 -165.205 -4.82084 7.0019 39.0811 -6.73843e-06 -1.23785e-05 -0.00112543 0.0238729 5.77879 40.9854 -6.48686e-06 -1.26872e-05 -10.8629 5.55349 -56.475 11.7543 -2.30145e-07 3.05095e-06 0.0228125 -0.0437918 -17.496 -2.19251 6.46944 -1.45247e-06 175.63 27.301 -178.051 -39.0811 -0.00228153 -0.0401928 -0.0348438 0.154383 19.2323 -40.9854 7.72618e-06 5.99936e-06 -2.9826 -0.835374 -64.5597 -11.7543 -5.6619e-06 -5.58687e-06 -0.132602 0.0685237 -16.5733 
0 0 0 0 0 -0 -7.04112 92.2 19.0217 87.2061 43.4162 6.50657 15.7357 5.1072e-06 -5.51765e-07 93.5126 86.0629 -91.1117 8.98455 -0.406207 -4.3199e-07 0.0911584 0.321616 4.79828 16.3773 -1.3905e-06 -6.99897e-07 3.51898 -17.336 3.38854 6.45672 -1.25837e-06 -1.02172e-07 13.341 -27.1804 0.357756 12.9942 -0.242716 4.98039 -92.1381 10.3219 -93.2299 5.34809 -7.22636e-06 -6.2814e-07 -62.4741 21.2201 4.18894 24.3286 1.87007e-05 4.90208e-06 -3.16876 -6.15865 -27.296 22.2916 -9.88446e-07 4.63217e-06 15.6119 5.62143 -12.7187 12.9945 -0.242716 -4.98039 88.376 11.7352 -97.0642 -5.34813 -1.25947e-06 -3.79883e-06 -48.6346 -47.4195 -30.562 -24.3289 0.000322201 -8.65921e-06 -50.4604 -48.2301 -58.3755 -22.2915 -0.000108084 -4.47941e-06 3.893 5.36819 -1.93025 -2.19248 -6.46944 -1.22534e-07 -165.15 -4.75256 7.01511 39.0811 -6.73843e-06 -1.23785e-05 -0.00113498 0.0239813 5.7077 40.9854 -6.48686e-06 -1.26872e-05 -10.9014 5.53945 -56.4648 11.7543 -2.30145e-07 3.05095e-06 0.0206092 -0.0406679 -17.4501 -2.19251 6.46944 -1.45247e-06 175.719 27.2459 -178.112 -39.0811 -0.00228153 -0.0401928 -0.0347892 0.155645 19.312 -40.9854 7.72618e-06 5.99936e-06 -2.96046 -0.94558 -64.6001 -11.7543 -5.6619e-06 -5.58687e-06 -0.133636 0.0689726 -16.5731 
0 0 0 0 0 -0 -7.08323 92.1909 19.0366 87.1816 43.4342 6.60407 15.7357 5.1072e-06 -5.51765e-07 93.6012 86.0555 -91.2127 8.98455 -0.406207 -4.3199e-07 0.104888 0.335827 4.7737 16.3773 -1.3905e-06 -6.99897e-07 3.43526 -17.321 3.33257 6.45672 -1.25837e-06 -1.02172e-07 13.3859 -27.1759 0.428351 12.9942 -0.242716 4.98039 -92.1337 10.2901 -93.2189 5.34809 -7.22636e-06 -6.2814e-07 -62.5741 21.1163 4.22573 24.3286 1.87007e-05 4.90208e-06 -3.15613 -6.18387 -27.1075 22.2916 -9.88446e-07 4.63217e-06 15.6178 5.62182 -12.7464 12.9945 -0.242716 -4.98039 88.3704 11.7482 -97.0457 -5.34813 -1.25947e-06 -3.79883e-06 -48.2865 -47.349 -30.4083 -24.3289 0.000322201 -8.65921e-06 -50.3131 -48.363 -58.1893 -22.2915 -0.000108084 -4.47941e-06 3.83325 5.3657 -1.85411 -2.19248 -6.46944 -1.22534e-07 -165.109 -4.67254 7.09778 39.0811 -6.73843e-06 -1.23785e-05 -0.00119417 0.0248332 5.67421 40.9854 -6.48686e-06 -1.26872e-05 -10.9313 5.49706 -56.4797 11.7543 -2.30145e-07 3.05095e-06 0.0227539 -0.0414751 -17.4168 -2.19251 6.46944 -1.45247e-06 175.707 27.3166 -178.064 -39.0811 -0.00228153 -0.0401928 -0.0356128 0.15608 19.3875 -40.9854 7.72618e-06 5.99936e-06 -2.92208 -0.874779 -64.636 -11.7543 -5.6619e-06 -5.58687e-06 -0.137171 0.0708091 -16.5733 
0 0 0 0 0 -0 -7.14046 92.1853 19.047 87.1186 43.4734 6.65725 15.7357 5.1072e-06 -5.51765e-07 93.6153 86.0661 -91.2235 8.98455 -0.406207 -4.3199e-07 0.0835591 0.335749 4.78034 16.3773 -1.3905e-06 -6.99897e-07 3.37897 -17.3207 3.31643 6.45672 -1.25837e-06 -1.02172e-07 13.2891 -27.1996 0.394212 12.9942 -0.242716 4.98039 -92.1399 10.317 -93.2152 5.34809 -7.22636e-06 -6.2814e-07 -62.5685 21.0162 4.28241 24.3286 1.87007e-05 4.90208e-06 -3.18778 -6.26346 -27.0447 22.2916 -9.88446e-07 4.63217e-06 15.5865 5.62166 -12.7346 12.9945 -0.242716 -4.98039 88.3783 11.7183 -97.0643 -5.34813 -1.25947e-06 -3.79883e-06 -48.0446 -47.3512 -30.1924 -24.3289 0.000322201 -8.65921e-06 -50.2896 -48.3513 -58.1723 -22.2915 -0.000108084 -4.47941e-06 3.78652 5.36563 -1.85173 -2.19248 -6.46944 -1.22534e-07 -165.032 -4.63639 7.07553 39.0811 -6.73843e-06 -1.23785e-05 -0.00107462 0.0233619 5.66798 40.9854 -6.48686e-06 -1.26872e-05 -10.9688 5.50344 -56.4675 11.7543 -2.30145e-07 3.05095e-06 0.0212009 -0.0395831 -17.3958 -2.19251 6.46944 -1.45247e-06 175.805 27.2859 -178.087 -39.0811 -0.00228153 -0.0401928 -0.0356976 0.155292 19.4145 -40.9854 7.72618e-06 5.99936e-06 -2.90014 -0.977924 -64.6585 -11.7543 -5.6619e-06 -5.58687e-06 -0.134105 0.0690836 -16.5734 
0 0 0 0 0 -0 -7.19295 92.1884 19.0645 87.1274 43.558 6.68597 15.7357 5.1072e-06 -5.51765e-07 93.6495 86.0775 -91.2696 8.98455 -0.406207 -4.3199e-07 0.0603903 0.339297 4.75652 16.3773 -1.3905e-06 -6.99897e-07 3.35507 -17.3354 3.2905 6.45672 -1.25837e-06 -1.02172e-07 13.2054 -27.2564 0.311447 12.9942 -0.242716 4.98039 -92.1375 10.303 -93.2128 5.34809 -7.22636e-06 -6.2814e-07 -62.5583 21.0514 4.28181 24.3286 1.87007e-05 4.90208e-06 -3.17218 -6.25045 -26.978 22.2916 -9.88446e-07 4.63217e-06 15.5185 5.62191 -12.7524 12.9945 -0.242716 -4.98039 88.3621 11.7575 -97.0118 -5.34813 -1.25947e-06 -3.79883e-06 -47.9367 -47.4465 -30.1274 -24.3289 0.000322201 -8.65921e-06 -50.1955 -48.3734 -58.0826 -22.2915 -0.000108084 -4.47941e-06 3.83239 5.36426 -1.81017 -2.19248 -6.46944 -1.22534e-07 -165.003 -4.59635 7.0693 39.0811 -6.73843e-06 -1.23785e-05 -0.0012032 0.0246738 5.64231 40.9854 -6.48686e-06 -1.26872e-05 -11.0038 5.56193 -56.3428 11.7543 -2.30145e-07 3.05095e-06 0.0208123 -0.0411737 -17.4635 -2.19251 6.46944 -1.45247e-06 175.832 27.2768 -178.061 -39.0811 -0.00228153 -0.0401928 -0.0355019 0.154479 19.4137 -40.9854 7.72618e-06 5.99936e-06 -2.87864 -1.0766 -64.6728 -11.7543 -5.6619e-06 -5.58687e-06 -0.137211 0.0705571 -16.5732 
